<?xml version='1.0' encoding='UTF-8'?>
<svg width="49.2mm" height="49.2mm" version="1.1" viewBox="0 0 49.2 49.2" xmlns="http://www.w3.org/2000/svg"><path d="M 13.2 25.2 L 13.2 26.4 L 14.4 26.4 L 14.4 25.2 z M 26.4 25.2 L 26.4 26.4 L 27.6 26.4 L 27.6 25.2 z M 26.4 36 L 26.4 37.2 L 27.6 37.2 L 27.6 36 z M 40.8 4.8 L 40.8 6.0 L 42.0 6.0 L 42.0 4.8 z M 37.2 20.4 L 37.2 21.6 L 38.4 21.6 L 38.4 20.4 z M 27.6 15.6 L 27.6 16.8 L 28.8 16.8 L 28.8 15.6 z M 40.8 15.6 L 40.8 16.8 L 42.0 16.8 L 42.0 15.6 z M 4.8 10.8 L 4.8 12.0 L 6.0 12.0 L 6.0 10.8 z M 14.4 26.4 L 14.4 27.6 L 15.6 27.6 L 15.6 26.4 z M 27.6 26.4 L 27.6 27.6 L 28.8 27.6 L 28.8 26.4 z M 40.8 26.4 L 40.8 27.6 L 42.0 27.6 L 42.0 26.4 z M 4.8 21.6 L 4.8 22.8 L 6.0 22.8 L 6.0 21.6 z M 18 21.6 L 18 22.8 L 19.2 22.8 L 19.2 21.6 z M 4.8 32.4 L 4.8 33.6 L 6.0 33.6 L 6.0 32.4 z M 16.8 37.2 L 16.8 38.4 L 18.0 38.4 L 18.0 37.2 z M 9.6 7.2 L 9.6 8.4 L 10.8 8.4 L 10.8 7.2 z M 7.2 43.2 L 7.2 44.4 L 8.4 44.4 L 8.4 43.2 z M 31.2 16.8 L 31.2 18.0 L 32.4 18.0 L 32.4 16.8 z M 8.4 12 L 8.4 13.2 L 9.6 13.2 L 9.6 12 z M 31.2 38.4 L 31.2 39.6 L 32.4 39.6 L 32.4 38.4 z M 8.4 33.6 L 8.4 34.8 L 9.6 34.8 L 9.6 33.6 z M 21.6 33.6 L 21.6 34.8 L 22.8 34.8 L 22.8 33.6 z M 13.2 19.2 L 13.2 20.4 L 14.4 20.4 L 14.4 19.2 z M 26.4 19.2 L 26.4 20.4 L 27.6 20.4 L 27.6 19.2 z M 22.8 34.8 L 22.8 36.0 L 24.0 36.0 L 24.0 34.8 z M 26.4 30 L 26.4 31.2 L 27.6 31.2 L 27.6 30 z M 39.6 37.2 L 39.6 38.4 L 40.8 38.4 L 40.8 37.2 z M 40.8 9.6 L 40.8 10.8 L 42.0 10.8 L 42.0 9.6 z M 4.8 4.8 L 4.8 6.0 L 6.0 6.0 L 6.0 4.8 z M 18 4.8 L 18 6.0 L 19.2 6.0 L 19.2 4.8 z M 34.8 18 L 34.8 19.2 L 36.0 19.2 L 36.0 18 z M 34.8 28.8 L 34.8 30.0 L 36.0 30.0 L 36.0 28.8 z M 34.8 39.6 L 34.8 40.8 L 36.0 40.8 L 36.0 39.6 z M 21.6 6 L 21.6 7.2 L 22.8 7.2 L 22.8 6 z M 8.4 16.8 L 8.4 18.0 L 9.6 18.0 L 9.6 16.8 z M 31.2 32.4 L 31.2 33.6 L 32.4 33.6 L 32.4 32.4 z M 8.4 27.6 L 8.4 28.8 L 9.6 28.8 L 9.6 27.6 z M 21.6 27.6 L 21.6 28.8 L 22.8 28.8 L 22.8 27.6 z M 8.4 38.4 L 8.4 39.6 L 9.6 39.6 L 9.6 38.4 z M 36 7.2 L 36 8.4 L 37.2 8.4 L 37.2 7.2 z M 22.8 18 L 22.8 19.2 L 24.0 19.2 L 24.0 18 z M 26.4 13.2 L 26.4 14.4 L 27.6 14.4 L 27.6 13.2 z M 13.2 24 L 13.2 25.2 L 14.4 25.2 L 14.4 24 z M 39.6 31.2 L 39.6 32.4 L 40.8 32.4 L 40.8 31.2 z M 30 26.4 L 30 27.6 L 31.2 27.6 L 31.2 26.4 z M 12 39.6 L 12 40.8 L 13.2 40.8 L 13.2 39.6 z M 39.6 42 L 39.6 43.2 L 40.8 43.2 L 40.8 42 z M 7.2 20.4 L 7.2 21.6 L 8.4 21.6 L 8.4 20.4 z M 34.8 22.8 L 34.8 24.0 L 36.0 24.0 L 36.0 22.8 z M 16.8 36 L 16.8 37.2 L 18.0 37.2 L 18.0 36 z M 7.2 31.2 L 7.2 32.4 L 8.4 32.4 L 8.4 31.2 z M 34.8 33.6 L 34.8 34.8 L 36.0 34.8 L 36.0 33.6 z M 31.2 15.6 L 31.2 16.8 L 32.4 16.8 L 32.4 15.6 z M 21.6 10.8 L 21.6 12.0 L 22.8 12.0 L 22.8 10.8 z M 31.2 26.4 L 31.2 27.6 L 32.4 27.6 L 32.4 26.4 z M 8.4 21.6 L 8.4 22.8 L 9.6 22.8 L 9.6 21.6 z M 21.6 21.6 L 21.6 22.8 L 22.8 22.8 L 22.8 21.6 z M 31.2 37.2 L 31.2 38.4 L 32.4 38.4 L 32.4 37.2 z M 8.4 32.4 L 8.4 33.6 L 9.6 33.6 L 9.6 32.4 z M 21.6 32.4 L 21.6 33.6 L 22.8 33.6 L 22.8 32.4 z M 21.6 43.2 L 21.6 44.4 L 22.8 44.4 L 22.8 43.2 z M 36 12 L 36 13.2 L 37.2 13.2 L 37.2 12 z M 38.4 34.8 L 38.4 36.0 L 39.6 36.0 L 39.6 34.8 z M 26.4 7.2 L 26.4 8.4 L 27.6 8.4 L 27.6 7.2 z M 15.6 40.8 L 15.6 42.0 L 16.8 42.0 L 16.8 40.8 z M 39.6 14.4 L 39.6 15.6 L 40.8 15.6 L 40.8 14.4 z M 39.6 25.2 L 39.6 26.4 L 40.8 26.4 L 40.8 25.2 z M 12 33.6 L 12 34.8 L 13.2 34.8 L 13.2 33.6 z M 30 31.2 L 30 32.4 L 31.2 32.4 L 31.2 31.2 z M 16.8 19.2 L 16.8 20.4 L 18.0 20.4 L 18.0 19.2 z M 34.8 16.8 L 34.8 18.0 L 36.0 18.0 L 36.0 16.8 z M 34.8 27.6 L 34.8 28.8 L 36.0 28.8 L 36.0 27.6 z M 7.2 36 L 7.2 37.2 L 8.4 37.2 L 8.4 36 z M 34.8 38.4 L 34.8 39.6 L 36.0 39.6 L 36.0 38.4 z M 8.4 4.8 L 8.4 6.0 L 9.6 6.0 L 9.6 4.8 z M 21.6 4.8 L 21.6 6.0 L 22.8 6.0 L 22.8 4.8 z M 20.4 43.2 L 20.4 44.4 L 21.6 44.4 L 21.6 43.2 z M 33.6 43.2 L 33.6 44.4 L 34.8 44.4 L 34.8 43.2 z M 21.6 26.4 L 21.6 27.6 L 22.8 27.6 L 22.8 26.4 z M 36 6 L 36 7.2 L 37.2 7.2 L 37.2 6 z M 38.4 28.8 L 38.4 30.0 L 39.6 30.0 L 39.6 28.8 z M 25.2 39.6 L 25.2 40.8 L 26.4 40.8 L 26.4 39.6 z M 38.4 39.6 L 38.4 40.8 L 39.6 40.8 L 39.6 39.6 z M 15.6 34.8 L 15.6 36.0 L 16.8 36.0 L 16.8 34.8 z M 39.6 8.4 L 39.6 9.6 L 40.8 9.6 L 40.8 8.4 z M 12 16.8 L 12 18.0 L 13.2 18.0 L 13.2 16.8 z M 39.6 30 L 39.6 31.2 L 40.8 31.2 L 40.8 30 z M 30 25.2 L 30 26.4 L 31.2 26.4 L 31.2 25.2 z M 12 38.4 L 12 39.6 L 13.2 39.6 L 13.2 38.4 z M 30 36 L 30 37.2 L 31.2 37.2 L 31.2 36 z M 16.8 13.2 L 16.8 14.4 L 18.0 14.4 L 18.0 13.2 z M 7.2 8.4 L 7.2 9.6 L 8.4 9.6 L 8.4 8.4 z M 7.2 19.2 L 7.2 20.4 L 8.4 20.4 L 8.4 19.2 z M 34.8 21.6 L 34.8 22.8 L 36.0 22.8 L 36.0 21.6 z M 7.2 40.8 L 7.2 42.0 L 8.4 42.0 L 8.4 40.8 z M 31.2 14.4 L 31.2 15.6 L 32.4 15.6 L 32.4 14.4 z M 33.6 37.2 L 33.6 38.4 L 34.8 38.4 L 34.8 37.2 z M 8.4 9.6 L 8.4 10.8 L 9.6 10.8 L 9.6 9.6 z M 38.4 12 L 38.4 13.2 L 39.6 13.2 L 39.6 12 z M 38.4 33.6 L 38.4 34.8 L 39.6 34.8 L 39.6 33.6 z M 15.6 39.6 L 15.6 40.8 L 16.8 40.8 L 16.8 39.6 z M 12 10.8 L 12 12.0 L 13.2 12.0 L 13.2 10.8 z M 30 8.4 L 30 9.6 L 31.2 9.6 L 31.2 8.4 z M 12 21.6 L 12 22.8 L 13.2 22.8 L 13.2 21.6 z M 12 43.2 L 12 44.4 L 13.2 44.4 L 13.2 43.2 z M 30 40.8 L 30 42.0 L 31.2 42.0 L 31.2 40.8 z M 7.2 24 L 7.2 25.2 L 8.4 25.2 L 8.4 24 z M 43.2 25.2 L 43.2 26.4 L 44.4 26.4 L 44.4 25.2 z M 20.4 20.4 L 20.4 21.6 L 21.6 21.6 L 21.6 20.4 z M 33.6 31.2 L 33.6 32.4 L 34.8 32.4 L 34.8 31.2 z M 20.4 42 L 20.4 43.2 L 21.6 43.2 L 21.6 42 z M 24 37.2 L 24 38.4 L 25.2 38.4 L 25.2 37.2 z M 25.2 6 L 25.2 7.2 L 26.4 7.2 L 26.4 6 z M 38.4 16.8 L 38.4 18.0 L 39.6 18.0 L 39.6 16.8 z M 10.8 25.2 L 10.8 26.4 L 12.0 26.4 L 12.0 25.2 z M 25.2 27.6 L 25.2 28.8 L 26.4 28.8 L 26.4 27.6 z M 38.4 27.6 L 38.4 28.8 L 39.6 28.8 L 39.6 27.6 z M 15.6 22.8 L 15.6 24.0 L 16.8 24.0 L 16.8 22.8 z M 10.8 36 L 10.8 37.2 L 12.0 37.2 L 12.0 36 z M 38.4 38.4 L 38.4 39.6 L 39.6 39.6 L 39.6 38.4 z M 12 4.8 L 12 6.0 L 13.2 6.0 L 13.2 4.8 z M 39.6 7.2 L 39.6 8.4 L 40.8 8.4 L 40.8 7.2 z M 39.6 18 L 39.6 19.2 L 40.8 19.2 L 40.8 18 z M 12 26.4 L 12 27.6 L 13.2 27.6 L 13.2 26.4 z M 28.8 39.6 L 28.8 40.8 L 30.0 40.8 L 30.0 39.6 z M 42 39.6 L 42 40.8 L 43.2 40.8 L 43.2 39.6 z M 16.8 12 L 16.8 13.2 L 18.0 13.2 L 18.0 12 z M 19.2 34.8 L 19.2 36.0 L 20.4 36.0 L 20.4 34.8 z M 7.2 7.2 L 7.2 8.4 L 8.4 8.4 L 8.4 7.2 z M 43.2 8.4 L 43.2 9.6 L 44.4 9.6 L 44.4 8.4 z M 9.6 40.8 L 9.6 42.0 L 10.8 42.0 L 10.8 40.8 z M 20.4 14.4 L 20.4 15.6 L 21.6 15.6 L 21.6 14.4 z M 33.6 14.4 L 33.6 15.6 L 34.8 15.6 L 34.8 14.4 z M 6 22.8 L 6 24.0 L 7.2 24.0 L 7.2 22.8 z M 43.2 40.8 L 43.2 42.0 L 44.4 42.0 L 44.4 40.8 z M 24 20.4 L 24 21.6 L 25.2 21.6 L 25.2 20.4 z M 6 33.6 L 6 34.8 L 7.2 34.8 L 7.2 33.6 z M 20.4 36 L 20.4 37.2 L 21.6 37.2 L 21.6 36 z M 33.6 36 L 33.6 37.2 L 34.8 37.2 L 34.8 36 z M 24 31.2 L 24 32.4 L 25.2 32.4 L 25.2 31.2 z M 24 42 L 24 43.2 L 25.2 43.2 L 25.2 42 z M 15.6 6 L 15.6 7.2 L 16.8 7.2 L 16.8 6 z M 10.8 19.2 L 10.8 20.4 L 12.0 20.4 L 12.0 19.2 z M 38.4 21.6 L 38.4 22.8 L 39.6 22.8 L 39.6 21.6 z M 15.6 16.8 L 15.6 18.0 L 16.8 18.0 L 16.8 16.8 z M 10.8 30 L 10.8 31.2 L 12.0 31.2 L 12.0 30 z M 15.6 27.6 L 15.6 28.8 L 16.8 28.8 L 16.8 27.6 z M 12 9.6 L 12 10.8 L 13.2 10.8 L 13.2 9.6 z M 39.6 12 L 39.6 13.2 L 40.8 13.2 L 40.8 12 z M 30 7.2 L 30 8.4 L 31.2 8.4 L 31.2 7.2 z M 14.4 43.2 L 14.4 44.4 L 15.6 44.4 L 15.6 43.2 z M 27.6 43.2 L 27.6 44.4 L 28.8 44.4 L 28.8 43.2 z M 28.8 33.6 L 28.8 34.8 L 30.0 34.8 L 30.0 33.6 z M 42 33.6 L 42 34.8 L 43.2 34.8 L 43.2 33.6 z M 19.2 28.8 L 19.2 30.0 L 20.4 30.0 L 20.4 28.8 z M 32.4 28.8 L 32.4 30.0 L 33.6 30.0 L 33.6 28.8 z M 19.2 39.6 L 19.2 40.8 L 20.4 40.8 L 20.4 39.6 z M 32.4 39.6 L 32.4 40.8 L 33.6 40.8 L 33.6 39.6 z M 43.2 24 L 43.2 25.2 L 44.4 25.2 L 44.4 24 z M 6 16.8 L 6 18.0 L 7.2 18.0 L 7.2 16.8 z M 20.4 19.2 L 20.4 20.4 L 21.6 20.4 L 21.6 19.2 z M 33.6 19.2 L 33.6 20.4 L 34.8 20.4 L 34.8 19.2 z M 43.2 34.8 L 43.2 36.0 L 44.4 36.0 L 44.4 34.8 z M 20.4 30 L 20.4 31.2 L 21.6 31.2 L 21.6 30 z M 20.4 40.8 L 20.4 42.0 L 21.6 42.0 L 21.6 40.8 z M 33.6 40.8 L 33.6 42.0 L 34.8 42.0 L 34.8 40.8 z M 24 36 L 24 37.2 L 25.2 37.2 L 25.2 36 z M 38.4 4.8 L 38.4 6.0 L 39.6 6.0 L 39.6 4.8 z M 38.4 15.6 L 38.4 16.8 L 39.6 16.8 L 39.6 15.6 z M 15.6 10.8 L 15.6 12.0 L 16.8 12.0 L 16.8 10.8 z M 10.8 24 L 10.8 25.2 L 12.0 25.2 L 12.0 24 z M 37.2 42 L 37.2 43.2 L 38.4 43.2 L 38.4 42 z M 27.6 37.2 L 27.6 38.4 L 28.8 38.4 L 28.8 37.2 z M 40.8 37.2 L 40.8 38.4 L 42.0 38.4 L 42.0 37.2 z M 4.8 43.2 L 4.8 44.4 L 6.0 44.4 L 6.0 43.2 z M 18 43.2 L 18 44.4 L 19.2 44.4 L 19.2 43.2 z M 28.8 16.8 L 28.8 18.0 L 30.0 18.0 L 30.0 16.8 z M 42 16.8 L 42 18.0 L 43.2 18.0 L 43.2 16.8 z M 19.2 12 L 19.2 13.2 L 20.4 13.2 L 20.4 12 z M 28.8 27.6 L 28.8 28.8 L 30.0 28.8 L 30.0 27.6 z M 42 27.6 L 42 28.8 L 43.2 28.8 L 43.2 27.6 z M 9.6 18 L 9.6 19.2 L 10.8 19.2 L 10.8 18 z M 43.2 7.2 L 43.2 8.4 L 44.4 8.4 L 44.4 7.2 z M 9.6 28.8 L 9.6 30.0 L 10.8 30.0 L 10.8 28.8 z M 43.2 18 L 43.2 19.2 L 44.4 19.2 L 44.4 18 z M 9.6 39.6 L 9.6 40.8 L 10.8 40.8 L 10.8 39.6 z M 20.4 24 L 20.4 25.2 L 21.6 25.2 L 21.6 24 z M 33.6 24 L 33.6 25.2 L 34.8 25.2 L 34.8 24 z M 24 19.2 L 24 20.4 L 25.2 20.4 L 25.2 19.2 z M 33.6 34.8 L 33.6 36.0 L 34.8 36.0 L 34.8 34.8 z M 24 30 L 24 31.2 L 25.2 31.2 L 25.2 30 z M 6 43.2 L 6 44.4 L 7.2 44.4 L 7.2 43.2 z M 24 40.8 L 24 42.0 L 25.2 42.0 L 25.2 40.8 z M 25.2 9.6 L 25.2 10.8 L 26.4 10.8 L 26.4 9.6 z M 38.4 9.6 L 38.4 10.8 L 39.6 10.8 L 39.6 9.6 z M 14.4 20.4 L 14.4 21.6 L 15.6 21.6 L 15.6 20.4 z M 40.8 31.2 L 40.8 32.4 L 42.0 32.4 L 42.0 31.2 z M 40.8 42 L 40.8 43.2 L 42.0 43.2 L 42.0 42 z M 4.8 37.2 L 4.8 38.4 L 6.0 38.4 L 6.0 37.2 z M 18 37.2 L 18 38.4 L 19.2 38.4 L 19.2 37.2 z M 28.8 10.8 L 28.8 12.0 L 30.0 12.0 L 30.0 10.8 z M 42 21.6 L 42 22.8 L 43.2 22.8 L 43.2 21.6 z M 19.2 16.8 L 19.2 18.0 L 20.4 18.0 L 20.4 16.8 z M 28.8 32.4 L 28.8 33.6 L 30.0 33.6 L 30.0 32.4 z M 9.6 12 L 9.6 13.2 L 10.8 13.2 L 10.8 12 z M 32.4 27.6 L 32.4 28.8 L 33.6 28.8 L 33.6 27.6 z M 42 43.2 L 42 44.4 L 43.2 44.4 L 43.2 43.2 z M 43.2 12 L 43.2 13.2 L 44.4 13.2 L 44.4 12 z M 9.6 33.6 L 9.6 34.8 L 10.8 34.8 L 10.8 33.6 z M 6 4.8 L 6 6.0 L 7.2 6.0 L 7.2 4.8 z M 20.4 7.2 L 20.4 8.4 L 21.6 8.4 L 21.6 7.2 z M 6 15.6 L 6 16.8 L 7.2 16.8 L 7.2 15.6 z M 10.8 12 L 10.8 13.2 L 12.0 13.2 L 12.0 12 z M 26.4 34.8 L 26.4 36.0 L 27.6 36.0 L 27.6 34.8 z M 14.4 14.4 L 14.4 15.6 L 15.6 15.6 L 15.6 14.4 z M 40.8 14.4 L 40.8 15.6 L 42.0 15.6 L 42.0 14.4 z M 37.2 30 L 37.2 31.2 L 38.4 31.2 L 38.4 30 z M 4.8 9.6 L 4.8 10.8 L 6.0 10.8 L 6.0 9.6 z M 14.4 25.2 L 14.4 26.4 L 15.6 26.4 L 15.6 25.2 z M 27.6 25.2 L 27.6 26.4 L 28.8 26.4 L 28.8 25.2 z M 40.8 25.2 L 40.8 26.4 L 42.0 26.4 L 42.0 25.2 z M 37.2 40.8 L 37.2 42.0 L 38.4 42.0 L 38.4 40.8 z M 40.8 36 L 40.8 37.2 L 42.0 37.2 L 42.0 36 z M 4.8 31.2 L 4.8 32.4 L 6.0 32.4 L 6.0 31.2 z M 18 31.2 L 18 32.4 L 19.2 32.4 L 19.2 31.2 z M 42 4.8 L 42 6.0 L 43.2 6.0 L 43.2 4.8 z M 4.8 42 L 4.8 43.2 L 6.0 43.2 L 6.0 42 z M 9.6 16.8 L 9.6 18.0 L 10.8 18.0 L 10.8 16.8 z M 32.4 32.4 L 32.4 33.6 L 33.6 33.6 L 33.6 32.4 z M 43.2 6 L 43.2 7.2 L 44.4 7.2 L 44.4 6 z M 9.6 38.4 L 9.6 39.6 L 10.8 39.6 L 10.8 38.4 z M 33.6 12 L 33.6 13.2 L 34.8 13.2 L 34.8 12 z M 24 7.2 L 24 8.4 L 25.2 8.4 L 25.2 7.2 z M 6 20.4 L 6 21.6 L 7.2 21.6 L 7.2 20.4 z M 8.4 43.2 L 8.4 44.4 L 9.6 44.4 L 9.6 43.2 z M 22.8 22.8 L 22.8 24.0 L 24.0 24.0 L 24.0 22.8 z M 22.8 33.6 L 22.8 34.8 L 24.0 34.8 L 24.0 33.6 z M 36 33.6 L 36 34.8 L 37.2 34.8 L 37.2 33.6 z M 13.2 28.8 L 13.2 30.0 L 14.4 30.0 L 14.4 28.8 z M 14.4 8.4 L 14.4 9.6 L 15.6 9.6 L 15.6 8.4 z M 40.8 8.4 L 40.8 9.6 L 42.0 9.6 L 42.0 8.4 z M 37.2 24 L 37.2 25.2 L 38.4 25.2 L 38.4 24 z M 4.8 14.4 L 4.8 15.6 L 6.0 15.6 L 6.0 14.4 z M 18 14.4 L 18 15.6 L 19.2 15.6 L 19.2 14.4 z M 18 25.2 L 18 26.4 L 19.2 26.4 L 19.2 25.2 z M 27.6 40.8 L 27.6 42.0 L 28.8 42.0 L 28.8 40.8 z M 40.8 40.8 L 40.8 42.0 L 42.0 42.0 L 42.0 40.8 z M 4.8 36 L 4.8 37.2 L 6.0 37.2 L 6.0 36 z M 18 36 L 18 37.2 L 19.2 37.2 L 19.2 36 z M 28.8 20.4 L 28.8 21.6 L 30.0 21.6 L 30.0 20.4 z M 42 20.4 L 42 21.6 L 43.2 21.6 L 43.2 20.4 z M 32.4 15.6 L 32.4 16.8 L 33.6 16.8 L 33.6 15.6 z M 32.4 26.4 L 32.4 27.6 L 33.6 27.6 L 33.6 26.4 z M 9.6 21.6 L 9.6 22.8 L 10.8 22.8 L 10.8 21.6 z M 22.8 16.8 L 22.8 18.0 L 24.0 18.0 L 24.0 16.8 z M 26.4 12 L 26.4 13.2 L 27.6 13.2 L 27.6 12 z M 22.8 27.6 L 22.8 28.8 L 24.0 28.8 L 24.0 27.6 z M 36 27.6 L 36 28.8 L 37.2 28.8 L 37.2 27.6 z M 13.2 22.8 L 13.2 24.0 L 14.4 24.0 L 14.4 22.8 z M 36 38.4 L 36 39.6 L 37.2 39.6 L 37.2 38.4 z M 26.4 33.6 L 26.4 34.8 L 27.6 34.8 L 27.6 33.6 z M 37.2 18 L 37.2 19.2 L 38.4 19.2 L 38.4 18 z M 14.4 13.2 L 14.4 14.4 L 15.6 14.4 L 15.6 13.2 z M 37.2 28.8 L 37.2 30.0 L 38.4 30.0 L 38.4 28.8 z M 4.8 8.4 L 4.8 9.6 L 6.0 9.6 L 6.0 8.4 z M 27.6 24 L 27.6 25.2 L 28.8 25.2 L 28.8 24 z M 4.8 19.2 L 4.8 20.4 L 6.0 20.4 L 6.0 19.2 z M 18 19.2 L 18 20.4 L 19.2 20.4 L 19.2 19.2 z M 27.6 34.8 L 27.6 36.0 L 28.8 36.0 L 28.8 34.8 z M 40.8 34.8 L 40.8 36.0 L 42.0 36.0 L 42.0 34.8 z M 4.8 30 L 4.8 31.2 L 6.0 31.2 L 6.0 30 z M 19.2 9.6 L 19.2 10.8 L 20.4 10.8 L 20.4 9.6 z M 32.4 9.6 L 32.4 10.8 L 33.6 10.8 L 33.6 9.6 z M 34.8 32.4 L 34.8 33.6 L 36.0 33.6 L 36.0 32.4 z M 9.6 4.8 L 9.6 6.0 L 10.8 6.0 L 10.8 4.8 z M 34.8 43.2 L 34.8 44.4 L 36.0 44.4 L 36.0 43.2 z M 8.4 20.4 L 8.4 21.6 L 9.6 21.6 L 9.6 20.4 z M 21.6 20.4 L 21.6 21.6 L 22.8 21.6 L 22.8 20.4 z M 31.2 36 L 31.2 37.2 L 32.4 37.2 L 32.4 36 z M 36 10.8 L 36 12.0 L 37.2 12.0 L 37.2 10.8 z M 36 21.6 L 36 22.8 L 37.2 22.8 L 37.2 21.6 z M 26.4 16.8 L 26.4 18.0 L 27.6 18.0 L 27.6 16.8 z M 36 32.4 L 36 33.6 L 37.2 33.6 L 37.2 32.4 z M 26.4 27.6 L 26.4 28.8 L 27.6 28.8 L 27.6 27.6 z M 26.4 38.4 L 26.4 39.6 L 27.6 39.6 L 27.6 38.4 z M 37.2 12 L 37.2 13.2 L 38.4 13.2 L 38.4 12 z M 14.4 7.2 L 14.4 8.4 L 15.6 8.4 L 15.6 7.2 z M 40.8 7.2 L 40.8 8.4 L 42.0 8.4 L 42.0 7.2 z M 40.8 18 L 40.8 19.2 L 42.0 19.2 L 42.0 18 z M 18 13.2 L 18 14.4 L 19.2 14.4 L 19.2 13.2 z M 16.8 28.8 L 16.8 30.0 L 18.0 30.0 L 18.0 28.8 z M 16.8 39.6 L 16.8 40.8 L 18.0 40.8 L 18.0 39.6 z M 31.2 8.4 L 31.2 9.6 L 32.4 9.6 L 32.4 8.4 z M 21.6 14.4 L 21.6 15.6 L 22.8 15.6 L 22.8 14.4 z M 8.4 36 L 8.4 37.2 L 9.6 37.2 L 9.6 36 z M 36 4.8 L 36 6.0 L 37.2 6.0 L 37.2 4.8 z M 22.8 15.6 L 22.8 16.8 L 24.0 16.8 L 24.0 15.6 z M 26.4 10.8 L 26.4 12.0 L 27.6 12.0 L 27.6 10.8 z M 22.8 26.4 L 22.8 27.6 L 24.0 27.6 L 24.0 26.4 z M 13.2 21.6 L 13.2 22.8 L 14.4 22.8 L 14.4 21.6 z M 26.4 32.4 L 26.4 33.6 L 27.6 33.6 L 27.6 32.4 z M 39.6 28.8 L 39.6 30.0 L 40.8 30.0 L 40.8 28.8 z M 12 37.2 L 12 38.4 L 13.2 38.4 L 13.2 37.2 z M 39.6 39.6 L 39.6 40.8 L 40.8 40.8 L 40.8 39.6 z M 40.8 12 L 40.8 13.2 L 42.0 13.2 L 42.0 12 z M 4.8 7.2 L 4.8 8.4 L 6.0 8.4 L 6.0 7.2 z M 16.8 22.8 L 16.8 24.0 L 18.0 24.0 L 18.0 22.8 z M 7.2 28.8 L 7.2 30.0 L 8.4 30.0 L 8.4 28.8 z M 7.2 39.6 L 7.2 40.8 L 8.4 40.8 L 8.4 39.6 z M 8.4 8.4 L 8.4 9.6 L 9.6 9.6 L 9.6 8.4 z M 31.2 24 L 31.2 25.2 L 32.4 25.2 L 32.4 24 z M 21.6 19.2 L 21.6 20.4 L 22.8 20.4 L 22.8 19.2 z M 8.4 30 L 8.4 31.2 L 9.6 31.2 L 9.6 30 z M 21.6 30 L 21.6 31.2 L 22.8 31.2 L 22.8 30 z M 8.4 40.8 L 8.4 42.0 L 9.6 42.0 L 9.6 40.8 z M 22.8 9.6 L 22.8 10.8 L 24.0 10.8 L 24.0 9.6 z M 36 9.6 L 36 10.8 L 37.2 10.8 L 37.2 9.6 z M 26.4 4.8 L 26.4 6.0 L 27.6 6.0 L 27.6 4.8 z M 36 20.4 L 36 21.6 L 37.2 21.6 L 37.2 20.4 z M 25.2 43.2 L 25.2 44.4 L 26.4 44.4 L 26.4 43.2 z M 13.2 15.6 L 13.2 16.8 L 14.4 16.8 L 14.4 15.6 z M 12 31.2 L 12 32.4 L 13.2 32.4 L 13.2 31.2 z M 39.6 33.6 L 39.6 34.8 L 40.8 34.8 L 40.8 33.6 z M 12 42 L 12 43.2 L 13.2 43.2 L 13.2 42 z M 30 39.6 L 30 40.8 L 31.2 40.8 L 31.2 39.6 z M 16.8 6 L 16.8 7.2 L 18.0 7.2 L 18.0 6 z M 7.2 12 L 7.2 13.2 L 8.4 13.2 L 8.4 12 z M 34.8 14.4 L 34.8 15.6 L 36.0 15.6 L 36.0 14.4 z M 7.2 22.8 L 7.2 24.0 L 8.4 24.0 L 8.4 22.8 z M 34.8 25.2 L 34.8 26.4 L 36.0 26.4 L 36.0 25.2 z M 7.2 33.6 L 7.2 34.8 L 8.4 34.8 L 8.4 33.6 z M 21.6 13.2 L 21.6 14.4 L 22.8 14.4 L 22.8 13.2 z M 31.2 28.8 L 31.2 30.0 L 32.4 30.0 L 32.4 28.8 z M 38.4 37.2 L 38.4 38.4 L 39.6 38.4 L 39.6 37.2 z M 26.4 9.6 L 26.4 10.8 L 27.6 10.8 L 27.6 9.6 z M 15.6 43.2 L 15.6 44.4 L 16.8 44.4 L 16.8 43.2 z M 12 14.4 L 12 15.6 L 13.2 15.6 L 13.2 14.4 z M 39.6 27.6 L 39.6 28.8 L 40.8 28.8 L 40.8 27.6 z M 12 36 L 12 37.2 L 13.2 37.2 L 13.2 36 z M 39.6 38.4 L 39.6 39.6 L 40.8 39.6 L 40.8 38.4 z M 16.8 10.8 L 16.8 12.0 L 18.0 12.0 L 18.0 10.8 z M 16.8 21.6 L 16.8 22.8 L 18.0 22.8 L 18.0 21.6 z M 7.2 16.8 L 7.2 18.0 L 8.4 18.0 L 8.4 16.8 z M 34.8 19.2 L 34.8 20.4 L 36.0 20.4 L 36.0 19.2 z M 7.2 38.4 L 7.2 39.6 L 8.4 39.6 L 8.4 38.4 z M 43.2 39.6 L 43.2 40.8 L 44.4 40.8 L 44.4 39.6 z M 31.2 12 L 31.2 13.2 L 32.4 13.2 L 32.4 12 z M 20.4 34.8 L 20.4 36.0 L 21.6 36.0 L 21.6 34.8 z M 8.4 7.2 L 8.4 8.4 L 9.6 8.4 L 9.6 7.2 z M 21.6 18 L 21.6 19.2 L 22.8 19.2 L 22.8 18 z M 10.8 28.8 L 10.8 30.0 L 12.0 30.0 L 12.0 28.8 z M 25.2 31.2 L 25.2 32.4 L 26.4 32.4 L 26.4 31.2 z M 38.4 42 L 38.4 43.2 L 39.6 43.2 L 39.6 42 z M 12 8.4 L 12 9.6 L 13.2 9.6 L 13.2 8.4 z M 12 19.2 L 12 20.4 L 13.2 20.4 L 13.2 19.2 z M 39.6 21.6 L 39.6 22.8 L 40.8 22.8 L 40.8 21.6 z M 39.6 32.4 L 39.6 33.6 L 40.8 33.6 L 40.8 32.4 z M 12 40.8 L 12 42.0 L 13.2 42.0 L 13.2 40.8 z M 34.8 24 L 34.8 25.2 L 36.0 25.2 L 36.0 24 z M 43.2 22.8 L 43.2 24.0 L 44.4 24.0 L 44.4 22.8 z M 43.2 33.6 L 43.2 34.8 L 44.4 34.8 L 44.4 33.6 z M 20.4 28.8 L 20.4 30.0 L 21.6 30.0 L 21.6 28.8 z M 33.6 28.8 L 33.6 30.0 L 34.8 30.0 L 34.8 28.8 z M 33.6 39.6 L 33.6 40.8 L 34.8 40.8 L 34.8 39.6 z M 21.6 12 L 21.6 13.2 L 22.8 13.2 L 22.8 12 z M 24 34.8 L 24 36.0 L 25.2 36.0 L 25.2 34.8 z M 25.2 14.4 L 25.2 15.6 L 26.4 15.6 L 26.4 14.4 z M 10.8 22.8 L 10.8 24.0 L 12.0 24.0 L 12.0 22.8 z M 25.2 25.2 L 25.2 26.4 L 26.4 26.4 L 26.4 25.2 z M 10.8 33.6 L 10.8 34.8 L 12.0 34.8 L 12.0 33.6 z M 38.4 36 L 38.4 37.2 L 39.6 37.2 L 39.6 36 z M 15.6 31.2 L 15.6 32.4 L 16.8 32.4 L 16.8 31.2 z M 39.6 4.8 L 39.6 6.0 L 40.8 6.0 L 40.8 4.8 z M 15.6 42 L 15.6 43.2 L 16.8 43.2 L 16.8 42 z M 39.6 15.6 L 39.6 16.8 L 40.8 16.8 L 40.8 15.6 z M 30 10.8 L 30 12.0 L 31.2 12.0 L 31.2 10.8 z M 12 24 L 12 25.2 L 13.2 25.2 L 13.2 24 z M 39.6 26.4 L 39.6 27.6 L 40.8 27.6 L 40.8 26.4 z M 30 21.6 L 30 22.8 L 31.2 22.8 L 31.2 21.6 z M 16.8 9.6 L 16.8 10.8 L 18.0 10.8 L 18.0 9.6 z M 7.2 4.8 L 7.2 6.0 L 8.4 6.0 L 8.4 4.8 z M 16.8 20.4 L 16.8 21.6 L 18.0 21.6 L 18.0 20.4 z M 19.2 43.2 L 19.2 44.4 L 20.4 44.4 L 20.4 43.2 z M 32.4 43.2 L 32.4 44.4 L 33.6 44.4 L 33.6 43.2 z M 24 18 L 24 19.2 L 25.2 19.2 L 25.2 18 z M 20.4 33.6 L 20.4 34.8 L 21.6 34.8 L 21.6 33.6 z M 33.6 33.6 L 33.6 34.8 L 34.8 34.8 L 34.8 33.6 z M 24 28.8 L 24 30.0 L 25.2 30.0 L 25.2 28.8 z M 24 39.6 L 24 40.8 L 25.2 40.8 L 25.2 39.6 z M 38.4 8.4 L 38.4 9.6 L 39.6 9.6 L 39.6 8.4 z M 25.2 19.2 L 25.2 20.4 L 26.4 20.4 L 26.4 19.2 z M 15.6 14.4 L 15.6 15.6 L 16.8 15.6 L 16.8 14.4 z M 10.8 27.6 L 10.8 28.8 L 12.0 28.8 L 12.0 27.6 z M 38.4 30 L 38.4 31.2 L 39.6 31.2 L 39.6 30 z M 38.4 40.8 L 38.4 42.0 L 39.6 42.0 L 39.6 40.8 z M 15.6 36 L 15.6 37.2 L 16.8 37.2 L 16.8 36 z M 12 7.2 L 12 8.4 L 13.2 8.4 L 13.2 7.2 z M 39.6 9.6 L 39.6 10.8 L 40.8 10.8 L 40.8 9.6 z M 30 15.6 L 30 16.8 L 31.2 16.8 L 31.2 15.6 z M 12 28.8 L 12 30.0 L 13.2 30.0 L 13.2 28.8 z M 42 31.2 L 42 32.4 L 43.2 32.4 L 43.2 31.2 z M 28.8 42 L 28.8 43.2 L 30.0 43.2 L 30.0 42 z M 32.4 37.2 L 32.4 38.4 L 33.6 38.4 L 33.6 37.2 z M 7.2 9.6 L 7.2 10.8 L 8.4 10.8 L 8.4 9.6 z M 43.2 10.8 L 43.2 12.0 L 44.4 12.0 L 44.4 10.8 z M 9.6 32.4 L 9.6 33.6 L 10.8 33.6 L 10.8 32.4 z M 20.4 6 L 20.4 7.2 L 21.6 7.2 L 21.6 6 z M 9.6 43.2 L 9.6 44.4 L 10.8 44.4 L 10.8 43.2 z M 33.6 16.8 L 33.6 18.0 L 34.8 18.0 L 34.8 16.8 z M 43.2 32.4 L 43.2 33.6 L 44.4 33.6 L 44.4 32.4 z M 24 12 L 24 13.2 L 25.2 13.2 L 25.2 12 z M 6 25.2 L 6 26.4 L 7.2 26.4 L 7.2 25.2 z M 6 36 L 6 37.2 L 7.2 37.2 L 7.2 36 z M 20.4 38.4 L 20.4 39.6 L 21.6 39.6 L 21.6 38.4 z M 33.6 38.4 L 33.6 39.6 L 34.8 39.6 L 34.8 38.4 z M 24 33.6 L 24 34.8 L 25.2 34.8 L 25.2 33.6 z M 15.6 8.4 L 15.6 9.6 L 16.8 9.6 L 16.8 8.4 z M 25.2 24 L 25.2 25.2 L 26.4 25.2 L 26.4 24 z M 38.4 24 L 38.4 25.2 L 39.6 25.2 L 39.6 24 z M 15.6 30 L 15.6 31.2 L 16.8 31.2 L 16.8 30 z M 10.8 43.2 L 10.8 44.4 L 12.0 44.4 L 12.0 43.2 z M 37.2 39.6 L 37.2 40.8 L 38.4 40.8 L 38.4 39.6 z M 12 12 L 12 13.2 L 13.2 13.2 L 13.2 12 z M 14.4 34.8 L 14.4 36.0 L 15.6 36.0 L 15.6 34.8 z M 30 9.6 L 30 10.8 L 31.2 10.8 L 31.2 9.6 z M 4.8 40.8 L 4.8 42.0 L 6.0 42.0 L 6.0 40.8 z M 28.8 14.4 L 28.8 15.6 L 30.0 15.6 L 30.0 14.4 z M 42 14.4 L 42 15.6 L 43.2 15.6 L 43.2 14.4 z M 28.8 25.2 L 28.8 26.4 L 30.0 26.4 L 30.0 25.2 z M 19.2 20.4 L 19.2 21.6 L 20.4 21.6 L 20.4 20.4 z M 32.4 20.4 L 32.4 21.6 L 33.6 21.6 L 33.6 20.4 z M 42 36 L 42 37.2 L 43.2 37.2 L 43.2 36 z M 43.2 4.8 L 43.2 6.0 L 44.4 6.0 L 44.4 4.8 z M 9.6 26.4 L 9.6 27.6 L 10.8 27.6 L 10.8 26.4 z M 43.2 26.4 L 43.2 27.6 L 44.4 27.6 L 44.4 26.4 z M 24 6 L 24 7.2 L 25.2 7.2 L 25.2 6 z M 6 19.2 L 6 20.4 L 7.2 20.4 L 7.2 19.2 z M 20.4 21.6 L 20.4 22.8 L 21.6 22.8 L 21.6 21.6 z M 33.6 21.6 L 33.6 22.8 L 34.8 22.8 L 34.8 21.6 z M 24 16.8 L 24 18.0 L 25.2 18.0 L 25.2 16.8 z M 6 30 L 6 31.2 L 7.2 31.2 L 7.2 30 z M 20.4 32.4 L 20.4 33.6 L 21.6 33.6 L 21.6 32.4 z M 24 27.6 L 24 28.8 L 25.2 28.8 L 25.2 27.6 z M 10.8 4.8 L 10.8 6.0 L 12.0 6.0 L 12.0 4.8 z M 25.2 7.2 L 25.2 8.4 L 26.4 8.4 L 26.4 7.2 z M 38.4 7.2 L 38.4 8.4 L 39.6 8.4 L 39.6 7.2 z M 38.4 18 L 38.4 19.2 L 39.6 19.2 L 39.6 18 z M 15.6 13.2 L 15.6 14.4 L 16.8 14.4 L 16.8 13.2 z M 37.2 22.8 L 37.2 24.0 L 38.4 24.0 L 38.4 22.8 z M 37.2 33.6 L 37.2 34.8 L 38.4 34.8 L 38.4 33.6 z M 12 6 L 12 7.2 L 13.2 7.2 L 13.2 6 z M 14.4 28.8 L 14.4 30.0 L 15.6 30.0 L 15.6 28.8 z M 27.6 39.6 L 27.6 40.8 L 28.8 40.8 L 28.8 39.6 z M 28.8 19.2 L 28.8 20.4 L 30.0 20.4 L 30.0 19.2 z M 19.2 14.4 L 19.2 15.6 L 20.4 15.6 L 20.4 14.4 z M 28.8 30 L 28.8 31.2 L 30.0 31.2 L 30.0 30 z M 9.6 9.6 L 9.6 10.8 L 10.8 10.8 L 10.8 9.6 z M 32.4 25.2 L 32.4 26.4 L 33.6 26.4 L 33.6 25.2 z M 42 40.8 L 42 42.0 L 43.2 42.0 L 43.2 40.8 z M 19.2 36 L 19.2 37.2 L 20.4 37.2 L 20.4 36 z M 32.4 36 L 32.4 37.2 L 33.6 37.2 L 33.6 36 z M 43.2 9.6 L 43.2 10.8 L 44.4 10.8 L 44.4 9.6 z M 9.6 31.2 L 9.6 32.4 L 10.8 32.4 L 10.8 31.2 z M 43.2 20.4 L 43.2 21.6 L 44.4 21.6 L 44.4 20.4 z M 24 10.8 L 24 12.0 L 25.2 12.0 L 25.2 10.8 z M 6 24 L 6 25.2 L 7.2 25.2 L 7.2 24 z M 33.6 26.4 L 33.6 27.6 L 34.8 27.6 L 34.8 26.4 z M 14.4 12 L 14.4 13.2 L 15.6 13.2 L 15.6 12 z M 14.4 22.8 L 14.4 24.0 L 15.6 24.0 L 15.6 22.8 z M 27.6 22.8 L 27.6 24.0 L 28.8 24.0 L 28.8 22.8 z M 40.8 22.8 L 40.8 24.0 L 42.0 24.0 L 42.0 22.8 z M 18 18 L 18 19.2 L 19.2 19.2 L 19.2 18 z M 37.2 38.4 L 37.2 39.6 L 38.4 39.6 L 38.4 38.4 z M 14.4 33.6 L 14.4 34.8 L 15.6 34.8 L 15.6 33.6 z M 18 28.8 L 18 30.0 L 19.2 30.0 L 19.2 28.8 z M 4.8 39.6 L 4.8 40.8 L 6.0 40.8 L 6.0 39.6 z M 18 39.6 L 18 40.8 L 19.2 40.8 L 19.2 39.6 z M 19.2 8.4 L 19.2 9.6 L 20.4 9.6 L 20.4 8.4 z M 32.4 19.2 L 32.4 20.4 L 33.6 20.4 L 33.6 19.2 z M 28.8 34.8 L 28.8 36.0 L 30.0 36.0 L 30.0 34.8 z M 32.4 30 L 32.4 31.2 L 33.6 31.2 L 33.6 30 z M 19.2 40.8 L 19.2 42.0 L 20.4 42.0 L 20.4 40.8 z M 32.4 40.8 L 32.4 42.0 L 33.6 42.0 L 33.6 40.8 z M 9.6 36 L 9.6 37.2 L 10.8 37.2 L 10.8 36 z M 6 18 L 6 19.2 L 7.2 19.2 L 7.2 18 z M 6 28.8 L 6 30.0 L 7.2 30.0 L 7.2 28.8 z M 22.8 31.2 L 22.8 32.4 L 24.0 32.4 L 24.0 31.2 z M 13.2 26.4 L 13.2 27.6 L 14.4 27.6 L 14.4 26.4 z M 22.8 42 L 22.8 43.2 L 24.0 43.2 L 24.0 42 z M 36 42 L 36 43.2 L 37.2 43.2 L 37.2 42 z M 14.4 6 L 14.4 7.2 L 15.6 7.2 L 15.6 6 z M 37.2 21.6 L 37.2 22.8 L 38.4 22.8 L 38.4 21.6 z M 40.8 16.8 L 40.8 18.0 L 42.0 18.0 L 42.0 16.8 z M 37.2 32.4 L 37.2 33.6 L 38.4 33.6 L 38.4 32.4 z M 4.8 12 L 4.8 13.2 L 6.0 13.2 L 6.0 12 z M 27.6 27.6 L 27.6 28.8 L 28.8 28.8 L 28.8 27.6 z M 40.8 27.6 L 40.8 28.8 L 42.0 28.8 L 42.0 27.6 z M 37.2 43.2 L 37.2 44.4 L 38.4 44.4 L 38.4 43.2 z M 18 22.8 L 18 24.0 L 19.2 24.0 L 19.2 22.8 z M 27.6 38.4 L 27.6 39.6 L 28.8 39.6 L 28.8 38.4 z M 4.8 33.6 L 4.8 34.8 L 6.0 34.8 L 6.0 33.6 z M 18 33.6 L 18 34.8 L 19.2 34.8 L 19.2 33.6 z M 28.8 7.2 L 28.8 8.4 L 30.0 8.4 L 30.0 7.2 z M 19.2 13.2 L 19.2 14.4 L 20.4 14.4 L 20.4 13.2 z M 42 28.8 L 42 30.0 L 43.2 30.0 L 43.2 28.8 z M 9.6 8.4 L 9.6 9.6 L 10.8 9.6 L 10.8 8.4 z M 19.2 24 L 19.2 25.2 L 20.4 25.2 L 20.4 24 z M 6 12 L 6 13.2 L 7.2 13.2 L 7.2 12 z M 22.8 14.4 L 22.8 15.6 L 24.0 15.6 L 24.0 14.4 z M 36 14.4 L 36 15.6 L 37.2 15.6 L 37.2 14.4 z M 22.8 25.2 L 22.8 26.4 L 24.0 26.4 L 24.0 25.2 z M 36 25.2 L 36 26.4 L 37.2 26.4 L 37.2 25.2 z M 13.2 20.4 L 13.2 21.6 L 14.4 21.6 L 14.4 20.4 z M 22.8 36 L 22.8 37.2 L 24.0 37.2 L 24.0 36 z M 36 36 L 36 37.2 L 37.2 37.2 L 37.2 36 z M 13.2 31.2 L 13.2 32.4 L 14.4 32.4 L 14.4 31.2 z M 26.4 31.2 L 26.4 32.4 L 27.6 32.4 L 27.6 31.2 z M 37.2 4.8 L 37.2 6.0 L 38.4 6.0 L 38.4 4.8 z M 26.4 42 L 26.4 43.2 L 27.6 43.2 L 27.6 42 z M 37.2 26.4 L 37.2 27.6 L 38.4 27.6 L 38.4 26.4 z M 4.8 6 L 4.8 7.2 L 6.0 7.2 L 6.0 6 z M 27.6 21.6 L 27.6 22.8 L 28.8 22.8 L 28.8 21.6 z M 40.8 21.6 L 40.8 22.8 L 42.0 22.8 L 42.0 21.6 z M 14.4 32.4 L 14.4 33.6 L 15.6 33.6 L 15.6 32.4 z M 40.8 32.4 L 40.8 33.6 L 42.0 33.6 L 42.0 32.4 z M 4.8 27.6 L 4.8 28.8 L 6.0 28.8 L 6.0 27.6 z M 18 27.6 L 18 28.8 L 19.2 28.8 L 19.2 27.6 z M 4.8 38.4 L 4.8 39.6 L 6.0 39.6 L 6.0 38.4 z M 18 38.4 L 18 39.6 L 19.2 39.6 L 19.2 38.4 z M 28.8 12 L 28.8 13.2 L 30.0 13.2 L 30.0 12 z M 42 12 L 42 13.2 L 43.2 13.2 L 43.2 12 z M 19.2 7.2 L 19.2 8.4 L 20.4 8.4 L 20.4 7.2 z M 32.4 7.2 L 32.4 8.4 L 33.6 8.4 L 33.6 7.2 z M 19.2 18 L 19.2 19.2 L 20.4 19.2 L 20.4 18 z M 34.8 40.8 L 34.8 42.0 L 36.0 42.0 L 36.0 40.8 z M 9.6 24 L 9.6 25.2 L 10.8 25.2 L 10.8 24 z M 8.4 28.8 L 8.4 30.0 L 9.6 30.0 L 9.6 28.8 z M 21.6 28.8 L 21.6 30.0 L 22.8 30.0 L 22.8 28.8 z M 8.4 39.6 L 8.4 40.8 L 9.6 40.8 L 9.6 39.6 z M 21.6 39.6 L 21.6 40.8 L 22.8 40.8 L 22.8 39.6 z M 36 8.4 L 36 9.6 L 37.2 9.6 L 37.2 8.4 z M 36 19.2 L 36 20.4 L 37.2 20.4 L 37.2 19.2 z" id="qr-path" fill="#000000" fill-opacity="1" fill-rule="nonzero" stroke="none"/></svg>